<svg xmlns:xlink="http://www.w3.org/1999/xlink" xmlns="http://www.w3.org/2000/svg" width="65" height="30" viewBox="0 0 65 30" fill="none">
<path d="M49.7557 28.9979C57.4865 29.1328 63.863 22.9752 63.9979 15.2443C64.1328 7.51357 57.9752 1.13712 50.2444 1.00218C42.5135 0.86723 36.1371 7.0249 36.0022 14.7557C35.8672 22.4865 42.0249 28.8629 49.7557 28.9979Z" stroke="#040406"/>
<path d="M41.4041 15.7483L56.1256 15.7967L51.1032 20.0934C51.0131 20.1683 50.9369 20.258 50.8795 20.3572C50.8219 20.4565 50.7841 20.5632 50.7683 20.6715C50.7525 20.7795 50.759 20.8869 50.7874 20.9871C50.8158 21.0874 50.8654 21.1785 50.9335 21.2553C51.0016 21.332 51.0868 21.3928 51.1841 21.4341C51.2813 21.4754 51.3887 21.4964 51.5 21.4958C51.6113 21.4953 51.7242 21.4731 51.8322 21.4307C51.9402 21.3883 52.041 21.3266 52.129 21.2491L58.7709 15.5666C58.9488 15.4144 59.0654 15.2075 59.095 14.9915C59.1247 14.7756 59.0649 14.5681 58.9289 14.4148L53.8514 8.69392C53.7139 8.545 53.5138 8.46227 53.294 8.46341C53.0743 8.46454 52.8525 8.54951 52.6766 8.7C52.5006 8.85049 52.3846 9.05453 52.3534 9.26808C52.3222 9.48162 52.3784 9.68774 52.5098 9.84181L56.3491 14.1676L41.6277 14.1194C41.4057 14.1186 41.181 14.2037 41.0031 14.356C40.8251 14.5082 40.7084 14.7151 40.6788 14.9311C40.6492 15.1471 40.7089 15.3546 40.845 15.5078C40.981 15.6612 41.1821 15.7476 41.4041 15.7483Z" fill="#040406"/>
<path d="M15 29C22.732 29 29 22.732 29 15C29 7.26801 22.732 1 15 1C7.26801 1 1 7.26801 1 15C1 22.732 7.26801 29 15 29Z" stroke="white"/>
<path d="M6.39962 15.7546L21.1211 15.8029L16.0987 20.0996C16.0085 20.1745 15.9324 20.2642 15.8749 20.3635C15.8175 20.4627 15.7796 20.5695 15.7638 20.6777C15.7481 20.7858 15.7545 20.8931 15.7829 20.9934C15.8113 21.0937 15.8608 21.1847 15.9289 21.2614C15.997 21.3382 16.0823 21.3991 16.1796 21.4404C16.2768 21.4816 16.3842 21.5026 16.4955 21.502C16.6068 21.5015 16.7197 21.4793 16.8276 21.4369C16.9356 21.3945 17.0365 21.3329 17.1245 21.2554L23.7665 15.5729C23.9444 15.4206 24.061 15.2138 24.0906 14.9978C24.1202 14.7819 24.0604 14.5743 23.9244 14.421L18.8469 8.70017C18.7094 8.55128 18.5092 8.4685 18.2895 8.46964C18.0698 8.47079 17.8481 8.55578 17.6721 8.70623C17.4962 8.85677 17.3801 9.06075 17.3489 9.27432C17.3177 9.48788 17.3739 9.69396 17.5053 9.84806L21.3446 14.1739L6.62309 14.1255C6.40114 14.1248 6.17638 14.2099 5.9985 14.3621C5.82053 14.5144 5.70387 14.7213 5.67423 14.9373C5.64467 15.1533 5.70436 15.3608 5.84046 15.514C5.97648 15.6673 6.1776 15.7539 6.39962 15.7546Z" fill="white"/>
</svg>