<svg xmlns:xlink="http://www.w3.org/1999/xlink" xmlns="http://www.w3.org/2000/svg" width="10" height="18" viewBox="0 0 10 18" fill="none">
<g clip-path="url(#clip0_455_2)">
<path d="M8.75471 17.7273C8.59013 17.7282 8.42699 17.6961 8.27462 17.6329C8.12226 17.5696 7.98368 17.4763 7.86683 17.3585L0.363645 9.72863C0.130732 9.49037 0 9.16807 0 8.83213C0 8.49618 0.130732 8.17388 0.363645 7.93562L7.86683 0.305775C8.10606 0.0974467 8.41379 -0.0114134 8.72852 0.00094836C9.04325 0.0133102 9.3418 0.145983 9.56451 0.372455C9.78722 0.598927 9.91769 0.902518 9.92985 1.22256C9.94201 1.5426 9.83495 1.85552 9.63008 2.09879L3.01477 8.82577L9.63008 15.5527C9.80569 15.7299 9.9257 15.9559 9.97495 16.2024C10.0242 16.4488 10.0005 16.7046 9.90679 16.9374C9.81309 17.1701 9.65363 17.3694 9.44856 17.51C9.24349 17.6506 9.00203 17.7262 8.75471 17.7273Z" fill="white"/>
</g>
<defs>
<clipPath id="clip0_455_2">
<rect width="10" height="18" fill="white"/>
</clipPath>
</defs>
</svg>