<svg xmlns:xlink="http://www.w3.org/1999/xlink" xmlns="http://www.w3.org/2000/svg" width="35" height="36" viewBox="0 0 35 36" fill="none">
<circle cx="17.6667" cy="18.0026" r="16.6667" stroke="#040406"/>
<path d="M9.71083 16.2892C9.33198 16.4347 9.0632 16.7754 9.00955 17.1774C8.95646 17.5801 9.12735 17.9788 9.45532 18.2172L13.0458 20.8298L25.7981 10.7968L14.5219 21.9061L19.4302 25.4777C19.7421 25.7045 20.1453 25.7725 20.5164 25.6602C20.887 25.5474 21.1823 25.2659 21.315 24.9036L26.5657 10.5319C26.6188 10.3859 26.5812 10.2228 26.4706 10.1138C26.3606 10.0049 26.1974 9.97058 26.0514 10.0264L9.71083 16.2892Z" fill="black"/>
<path d="M12.1875 21.6987L12.2179 21.8652L12.9148 25.6752C12.9668 25.9584 13.1559 26.1956 13.4192 26.3101C13.6824 26.424 13.986 26.3997 14.2272 26.2443C15.1978 25.6182 16.4654 24.7875 16.4311 24.7389L12.1875 21.6987Z" fill="black"/>
</svg>