<svg width="47" height="22" viewBox="0 0 47 22" fill="none" xmlns="http://www.w3.org/2000/svg">
<g clip-path="url(#clip0_546_17)">
<path d="M36 21.085C36.8177 21.085 37.6262 21.0703 38.4237 21.0428C42.556 20.897 45.8964 17.5567 46.0421 13.4244C46.0705 12.6269 46.0843 11.8184 46.0843 11.0007C46.0843 10.183 46.0696 9.37454 46.0421 8.57704C45.8964 4.44471 42.556 1.10438 38.4237 0.958626C37.6262 0.930209 36.8177 0.91646 36 0.91646C35.1824 0.91646 34.3739 0.931126 33.5764 0.958626C29.4431 1.10438 26.1028 4.44471 25.957 8.57796C25.9286 9.37546 25.9149 10.184 25.9149 11.0016C25.9149 11.8193 25.9295 12.6278 25.957 13.4253C26.1028 17.5567 29.4431 20.897 33.5764 21.0419C34.3739 21.0703 35.1824 21.085 36 21.085ZM31.765 14.924C31.4039 14.5345 31.4268 13.9249 31.8173 13.5646L37.3759 8.41388L34.053 8.07379C33.811 8.04904 33.5984 7.93629 33.4453 7.77038C33.2638 7.57513 33.1639 7.30471 33.1941 7.01779C33.2482 6.48979 33.7203 6.10479 34.2492 6.15979L39.3807 6.68779C39.7089 6.69788 40.0123 6.83538 40.235 7.07646C40.4569 7.31571 40.5714 7.62829 40.5577 7.88954L40.6924 13.1145C40.7071 13.6462 40.2864 14.088 39.7565 14.1018C39.4678 14.1091 39.2065 13.989 39.025 13.7938C38.8719 13.6288 38.7757 13.4088 38.7693 13.165L38.6849 9.82554L33.1254 14.9763C32.7358 15.3375 32.1262 15.3136 31.765 14.924Z" fill="black"/>
</g>
<g clip-path="url(#clip1_546_17)">
<path d="M11 21.085C11.8177 21.085 12.6262 21.0703 13.4237 21.0428C17.556 20.897 20.8964 17.5567 21.0421 13.4244C21.0705 12.6269 21.0843 11.8184 21.0843 11.0007C21.0843 10.183 21.0696 9.37454 21.0421 8.57704C20.8964 4.44471 17.556 1.10438 13.4237 0.958626C12.6262 0.930209 11.8177 0.91646 11 0.91646C10.1824 0.91646 9.37386 0.931126 8.57636 0.958626C4.44311 1.10438 1.10277 4.44471 0.957023 8.57796C0.928606 9.37546 0.914856 10.184 0.914856 11.0016C0.914856 11.8193 0.929523 12.6278 0.957023 13.4253C1.10277 17.5567 4.44311 20.897 8.57636 21.0419C9.37386 21.0703 10.1824 21.085 11 21.085ZM6.76502 14.924C6.40386 14.5345 6.42677 13.9249 6.81727 13.5646L12.3759 8.41388L9.05302 8.07379C8.81102 8.04904 8.59836 7.93629 8.44527 7.77038C8.26377 7.57513 8.16386 7.30471 8.19411 7.01779C8.24819 6.48979 8.72027 6.10479 9.24919 6.15979L14.3807 6.68779C14.7089 6.69788 15.0123 6.83538 15.235 7.07646C15.4569 7.31571 15.5714 7.62829 15.5577 7.88954L15.6924 13.1145C15.7071 13.6462 15.2864 14.088 14.7565 14.1018C14.4678 14.1091 14.2065 13.989 14.025 13.7938C13.8719 13.6288 13.7757 13.4088 13.7693 13.165L13.6849 9.82554L8.12536 14.9763C7.73577 15.3375 7.12619 15.3136 6.76502 14.924Z" fill="white"/>
</g>
<defs>
<clipPath id="clip0_546_17">
<rect width="22" height="22" fill="white" transform="matrix(0 -1 1 0 25 22)"/>
</clipPath>
<clipPath id="clip1_546_17">
<rect width="22" height="22" fill="white" transform="matrix(0 -1 1 0 0 22)"/>
</clipPath>
</defs>
</svg>
