<svg width="250" height="41" viewBox="0 0 250 41" fill="none" xmlns="http://www.w3.org/2000/svg">
<path d="M32.1079 20.3831C32.1079 26.8341 26.797 31.9957 20.162 31.9975C13.5011 31.9975 8.19943 26.8323 8.20313 20.3454C8.20683 13.9213 13.5418 8.77766 20.199 8.78125C26.7951 8.78484 32.1079 13.9608 32.1079 20.3831ZM21.2512 25.5913C21.56 25.5985 21.7079 25.5644 21.7375 25.2447C21.8041 24.5155 22.0519 23.8331 22.3958 23.1865C22.7601 22.5005 23.1503 21.827 23.5035 21.1356C23.9196 20.3202 24.1008 19.4564 23.9104 18.5512C23.5442 16.8037 22.0223 15.6777 20.0677 15.6885C17.9207 15.6992 16.3267 17.2761 16.3378 19.3594C16.3434 20.4262 16.8297 21.3277 17.3419 22.2185C17.7414 22.9118 18.0483 23.6337 18.3017 24.3862C18.4404 24.7975 18.2666 25.4045 18.6845 25.5913C19.1616 25.5913 21.2512 25.5913 21.2512 25.5913ZM21.6395 27.2921C21.6395 27.1933 21.6303 27.0945 21.6414 26.9975C21.6968 26.536 21.5119 26.333 21.0145 26.3672C21.0145 26.3672 19.034 26.3672 18.9249 26.3672C18.2998 26.3672 18.3627 26.5522 18.4996 27.6549C18.605 28.5025 19.0358 29.018 19.8698 29.0395C20.996 29.0665 21.6377 28.5169 21.6395 27.2921ZM14.8067 22.434C14.1816 22.7465 13.453 23.0411 12.8724 23.5763C12.7596 23.6804 12.7836 23.8528 12.8761 23.9893C12.9926 24.16 13.1831 24.2354 13.3606 24.1582C14.0041 23.8762 14.6217 23.5439 15.1784 23.1201C15.3171 23.0141 15.3411 22.8363 15.2616 22.6693C15.1895 22.5238 15.0674 22.4484 14.8067 22.434ZM20.5966 13.0682C20.5966 12.7736 20.6114 12.4791 20.5929 12.1864C20.5762 11.9242 20.4283 11.7553 20.1398 11.7625C19.8772 11.7679 19.7274 11.9313 19.7219 12.1684C19.7071 12.7557 19.7052 13.3448 19.7256 13.9338C19.7348 14.1853 19.8846 14.3792 20.1731 14.3684C20.4597 14.3577 20.5799 14.1511 20.5947 13.9015C20.6114 13.6249 20.5984 13.3466 20.5966 13.0682ZM13.1146 20.322C13.1146 20.3202 13.1146 20.3202 13.1146 20.3184C13.4179 20.3184 13.7212 20.3364 14.0226 20.313C14.2833 20.2933 14.4775 20.155 14.4664 19.8748C14.4553 19.6234 14.2685 19.4851 14.03 19.4779C13.4253 19.46 12.8188 19.4582 12.2122 19.4725C11.9422 19.4797 11.7721 19.6378 11.7814 19.9161C11.7906 20.1712 11.9607 20.304 12.2048 20.3184C12.5062 20.3346 12.8114 20.322 13.1146 20.322ZM27.2223 19.4707C27.2223 19.4725 27.2223 19.4725 27.2223 19.4743C26.9024 19.4743 26.5806 19.4564 26.2644 19.4797C26.024 19.4977 25.8465 19.6396 25.8446 19.891C25.8428 20.1442 26.0203 20.2987 26.2589 20.3058C26.8802 20.3274 27.5052 20.3274 28.1266 20.313C28.3725 20.3076 28.5315 20.1496 28.5334 19.8964C28.5352 19.6431 28.3799 19.4923 28.1321 19.4743C27.8288 19.4528 27.5256 19.4707 27.2223 19.4707ZM27.4978 23.8331C27.5052 23.6607 27.4405 23.5421 27.3314 23.4613C26.7877 23.068 26.1978 22.7501 25.5839 22.4754C25.3786 22.3838 25.1789 22.4718 25.0624 22.6621C24.9515 22.8435 25.0032 23.0375 25.1623 23.1488C25.7207 23.5439 26.3125 23.8995 26.9523 24.151C27.2223 24.2605 27.4405 24.1043 27.4978 23.8331ZM16.1584 12.7611C15.8422 12.7521 15.6314 13.0807 15.8015 13.4058C16.0752 13.9302 16.3933 14.4331 16.7114 14.9324C16.8464 15.1461 17.0609 15.2574 17.3142 15.1048C17.5565 14.9575 17.5842 14.7348 17.451 14.5049C17.1626 14.0057 16.8667 13.5118 16.5634 13.0215C16.4784 12.8796 16.3452 12.7736 16.1584 12.7611ZM24.5668 13.2298C24.5631 12.9963 24.4781 12.8419 24.2765 12.7808C24.0472 12.7108 23.8734 12.8293 23.7624 13.0035C23.4536 13.492 23.1596 13.9859 22.8692 14.4834C22.725 14.7294 22.7435 14.9665 23.019 15.1156C23.2816 15.2592 23.4832 15.1227 23.6163 14.9126C23.9251 14.4259 24.2136 13.9266 24.5058 13.4292C24.5446 13.3627 24.552 13.2765 24.5668 13.2298ZM15.2912 16.9367C15.2875 16.7966 15.2264 16.6762 15.1136 16.599C14.5755 16.2326 14.0078 15.913 13.4124 15.6436C13.196 15.5466 12.9723 15.6148 12.8539 15.8411C12.7429 16.053 12.8354 16.2452 13.0166 16.3548C13.5603 16.6816 14.1077 17.0049 14.6735 17.2905C14.9694 17.4377 15.2875 17.2294 15.2912 16.9367ZM27.4997 15.9956C27.4941 15.6741 27.1372 15.5053 26.7729 15.6903C26.281 15.9399 25.8058 16.2201 25.3305 16.502C25.0828 16.6493 24.8997 16.854 25.0975 17.1486C25.2714 17.409 25.521 17.3749 25.7651 17.2402C26.2478 16.9726 26.7286 16.7032 27.2057 16.4248C27.3684 16.3314 27.4941 16.1985 27.4997 15.9956Z" fill="#27AAE1"/>
<path d="M39.1468 11.0361C38.8195 10.5081 38.5218 9.96571 38.1889 9.4395C38.2888 9.58497 38.3776 9.72146 38.4589 9.84718C38.5625 10.0106 38.6549 10.1561 38.7326 10.28C38.8066 10.4075 38.8695 10.5153 38.9212 10.6015C39.0229 10.7739 39.0747 10.8637 39.0747 10.8637C39.0747 10.8637 39.0248 10.7739 38.9286 10.5979C38.8806 10.5099 38.8214 10.4003 38.7493 10.271C38.6734 10.1435 38.5865 9.99624 38.4867 9.82922C38.0835 9.16831 37.4604 8.20748 36.5025 7.10477C35.5464 6.00565 34.2594 4.75746 32.5581 3.60447C31.7093 3.02976 30.7625 2.47122 29.7121 1.98273C28.6636 1.49243 27.5171 1.05961 26.2837 0.73095C25.0521 0.395108 23.7336 0.170615 22.3578 0.0592662C22.012 0.0413068 21.6588 0.0125717 21.3149 0.00897977C21.228 0.00718382 21.141 0.00538784 21.0541 0.00359189L20.9228 0H20.8895H20.8526L20.786 0.00179599C20.6085 0.00538788 20.4309 0.00897977 20.2534 0.0125717C20.1647 0.0143676 20.0759 0.0161635 19.9853 0.0179595C19.8965 0.0197554 19.8059 0.0197555 19.7171 0.0287352C19.5378 0.0413068 19.3584 0.0538785 19.1772 0.0664501C19.0866 0.0718379 18.9959 0.0790217 18.9053 0.0844096L18.7685 0.0933892L18.6335 0.109553C18.4523 0.131104 18.2711 0.152656 18.088 0.174207C16.6327 0.357394 15.1533 0.693236 13.6998 1.20149C12.2482 1.71333 10.8261 2.40298 9.47804 3.25066C8.12627 4.09476 6.86511 5.12024 5.72414 6.28222C5.43196 6.56598 5.16753 6.87668 4.89199 7.1802L4.79029 7.29514L4.69228 7.41367L4.49811 7.65253C4.37052 7.81237 4.23552 7.96862 4.11163 8.13205C3.98958 8.29728 3.86938 8.4625 3.74733 8.62953C3.68631 8.71214 3.62528 8.79475 3.56611 8.87916L3.39783 9.13419C3.28503 9.3066 3.17037 9.47721 3.05757 9.64962C2.94847 9.82563 2.84676 10.0034 2.73951 10.1812C2.5213 10.5314 2.33823 10.9032 2.14221 11.2678L2.07009 11.4043L2.00352 11.5443L1.87223 11.8263C1.78716 12.0149 1.69285 12.1999 1.61334 12.392C1.53567 12.5842 1.45615 12.7764 1.37849 12.9685C1.33965 13.0655 1.29897 13.1607 1.26199 13.2577L1.16028 13.5522L0.955016 14.1413C0.893992 14.3406 0.836667 14.54 0.777492 14.7393C0.651745 15.1362 0.566681 15.5439 0.466824 15.948L0.429839 16.1007L0.402101 16.2515L0.344776 16.5586C0.307791 16.7634 0.265259 16.9681 0.233823 17.1728L0.152457 17.7924L0.111775 18.1031L0.0858857 18.4174L0.035957 19.046C0.0248617 19.152 0.0248616 19.2526 0.0211632 19.3567L0.0137663 19.6638L0.00636947 19.9709L0.00267104 20.1254L0.000821873 20.1631C0.000821873 20.1685 -0.00102734 20.199 0.000821873 20.2098L0.00267104 20.287L0.019314 20.912L0.0285601 21.2245L0.0525998 21.5352L0.102529 22.1584C0.108076 22.2626 0.124719 22.3649 0.137664 22.4691L0.178346 22.778L0.219029 23.0869C0.231974 23.1893 0.244918 23.2934 0.265259 23.3958L0.378062 24.01C0.398403 24.1124 0.415046 24.2148 0.437236 24.3153L0.509356 24.6188C0.886595 26.237 1.45245 27.8102 2.21988 29.2703C2.98175 30.734 3.90821 32.1026 4.9937 33.3148C5.12869 33.4657 5.26553 33.6165 5.40053 33.7674C5.53922 33.9165 5.68346 34.0565 5.82585 34.202L6.03851 34.4175L6.14576 34.5253L6.25671 34.6277C6.40465 34.7641 6.55444 34.9006 6.70237 35.0371C6.84846 35.1754 7.0038 35.3029 7.15728 35.4322C7.31077 35.5615 7.46425 35.6891 7.61773 35.8184C7.77677 35.9387 7.9358 36.0608 8.09483 36.1812C8.25386 36.3015 8.4092 36.4254 8.57563 36.535C9.87563 37.4491 11.2588 38.2088 12.6809 38.7943C14.1029 39.3815 15.5638 39.7892 17.008 40.046C17.3705 40.1053 17.7274 40.1735 18.088 40.2095C18.2674 40.231 18.4467 40.2526 18.6243 40.2723L18.7574 40.2885L18.8924 40.2975C18.983 40.3028 19.0718 40.31 19.1605 40.3154C19.3399 40.328 19.5174 40.3406 19.695 40.3513C19.7393 40.3549 19.7837 40.3585 19.8281 40.3603L19.9594 40.3621C20.0463 40.3639 20.1332 40.3657 20.2201 40.3675C20.394 40.3711 20.5659 40.3747 20.7398 40.3765L20.8692 40.3783L21.0042 40.3747C21.0911 40.3729 21.178 40.3711 21.2631 40.3693C21.6089 40.3657 21.9491 40.3388 22.2875 40.3226C22.626 40.2903 22.9607 40.2687 23.2898 40.2238C23.9518 40.1484 24.5935 40.0353 25.2186 39.9024C25.3739 39.8682 25.5292 39.8341 25.6827 39.8C25.8362 39.7605 25.9878 39.7228 26.1395 39.6832C26.2153 39.6635 26.2911 39.6437 26.3651 39.624C26.439 39.6024 26.513 39.5809 26.5888 39.5593C26.7368 39.5162 26.8847 39.4749 27.0308 39.43C27.3211 39.3348 27.6096 39.2468 27.887 39.1427C28.0275 39.0924 28.1662 39.0439 28.303 38.99C28.4399 38.9361 28.5749 38.8823 28.7099 38.8284C28.8449 38.7763 28.9762 38.7188 29.1075 38.6614C29.2387 38.6039 29.3682 38.5464 29.4976 38.4907C29.6252 38.4297 29.751 38.3704 29.8767 38.3111C29.9396 38.2806 30.0025 38.2519 30.0635 38.2213C30.1245 38.1908 30.1855 38.1585 30.2466 38.128C30.3686 38.0651 30.4888 38.004 30.609 37.9412C30.7292 37.8783 30.8439 37.8119 30.9604 37.749C31.075 37.6844 31.1934 37.6233 31.3043 37.555C31.4171 37.4886 31.5281 37.4221 31.6372 37.3557C32.5174 36.8241 33.2978 36.2638 33.982 35.7034C34.6662 35.1431 35.2598 34.5881 35.7646 34.0619C36.778 33.0077 37.4567 32.0846 37.8931 31.4434C38.0003 31.2818 38.0946 31.1381 38.1778 31.016C38.2574 30.8921 38.3221 30.7843 38.3757 30.6999C38.4811 30.5293 38.5347 30.4413 38.5347 30.4413C38.5347 30.4413 38.7123 29.9079 38.3517 29.7553C36.937 29.1608 35.5261 28.5592 34.1244 27.936C33.8026 27.7923 33.6121 27.8372 33.4235 28.0347C33.381 28.0796 33.3403 28.1317 33.2959 28.191C33.0315 28.5556 32.7781 28.9255 32.5193 29.2937C32.4323 29.4032 32.3362 29.5182 32.2363 29.6403C31.9571 29.9672 31.6242 30.3353 31.2285 30.7251C30.8346 31.1148 30.3723 31.5225 29.8416 31.9337C29.3109 32.3432 28.7136 32.7563 28.0405 33.1424C27.3673 33.5267 26.624 33.8949 25.8085 34.2038C25.7067 34.2415 25.6032 34.281 25.4996 34.3188C25.3961 34.3565 25.2907 34.3906 25.1853 34.4265C24.9745 34.5019 24.7563 34.563 24.538 34.6312C24.4289 34.6636 24.3161 34.6923 24.2052 34.7228C24.0942 34.7534 23.9814 34.7839 23.8668 34.809C23.7521 34.836 23.6375 34.8629 23.5228 34.8899C23.4063 34.9132 23.2898 34.9366 23.1733 34.9617C22.7036 35.0533 22.221 35.1287 21.7254 35.1772C21.4776 35.206 21.228 35.2185 20.9746 35.2383C20.7213 35.2473 20.4661 35.2616 20.2072 35.2598C20.1425 35.2598 20.0777 35.2598 20.013 35.2616H19.9206L19.8225 35.258C19.6913 35.2544 19.5581 35.2491 19.4268 35.2455C19.3602 35.2437 19.2937 35.2419 19.2271 35.2401C19.1605 35.2383 19.094 35.2365 19.0292 35.2293C18.8979 35.2185 18.7666 35.2077 18.6354 35.197L18.4375 35.1808C18.3709 35.1772 18.3062 35.17 18.2396 35.1593C18.1065 35.1413 17.9733 35.1251 17.8402 35.1072C17.5721 35.0784 17.3058 35.0228 17.0376 34.9761C15.9651 34.7713 14.8833 34.4552 13.8329 34.0063C12.7844 33.5555 11.7618 32.9897 10.8039 32.3037C8.88814 30.9316 7.24789 29.0692 6.13466 26.8997C5.56881 25.8185 5.15643 24.6566 4.8809 23.4623L4.82727 23.2378C4.81063 23.1623 4.79953 23.0869 4.78474 23.0115L4.70152 22.5589C4.67379 22.408 4.65899 22.2554 4.63865 22.1027C4.62016 21.9501 4.59427 21.7992 4.58317 21.6448L4.54804 21.185L4.5314 20.9551L4.52585 20.7252L4.51475 20.2637L4.5129 20.2062C4.5129 20.1954 4.5129 20.2008 4.5129 20.1846V20.1559L4.5166 20.0392L4.52215 19.8039L4.5277 19.5686C4.52955 19.4896 4.52955 19.4106 4.53694 19.337L4.57208 18.8826L4.59057 18.6545L4.62016 18.4264L4.67933 17.9685C4.70152 17.8158 4.73296 17.6667 4.75885 17.5141L4.79953 17.2878L4.81987 17.1746L4.84576 17.0633C4.91788 16.7652 4.97891 16.4634 5.07137 16.1707L5.20081 15.7289L5.35245 15.2943L5.42827 15.077C5.45415 15.0051 5.48559 14.9351 5.51333 14.8633L5.68531 14.4376C5.74263 14.2957 5.8129 14.1592 5.87578 14.0192L5.97193 13.8108L6.02001 13.7067L6.07364 13.6043C6.21788 13.3349 6.35102 13.0601 6.5119 12.7997C7.12769 11.7473 7.86553 10.7703 8.70507 9.90644C9.54277 9.0408 10.4692 8.27393 11.4659 7.64175C12.459 7.00419 13.5112 6.49055 14.5819 6.09544C15.6563 5.70572 16.7529 5.44172 17.8346 5.29266C18.9164 5.14539 19.989 5.11127 21.0171 5.16694C22.0453 5.23159 23.0346 5.38245 23.9611 5.61772C24.8894 5.84581 25.7548 6.1583 26.55 6.51031C27.347 6.86052 28.07 7.26461 28.721 7.68306C30.0228 8.52536 31.0251 9.44309 31.774 10.2584C31.9867 10.4865 32.1753 10.7092 32.3491 10.9229C32.8577 11.6054 33.3052 12.3256 33.7471 13.0511C33.8784 13.2667 33.9838 13.4211 34.2982 13.299C35.8404 12.7063 37.3919 12.1298 38.9416 11.5569C39.2541 11.4456 39.3151 11.3073 39.1468 11.0361Z" fill="#27AAE1"/>
<path d="M50.7609 9.98438C47.8799 9.98438 45.3797 10.9919 43.3345 12.98C41.2874 14.9681 40.25 17.3945 40.25 20.1925C40.25 22.9906 41.2874 25.4187 43.3345 27.4051C45.3816 29.3932 47.8799 30.4007 50.7609 30.4007C53.642 30.4007 56.1421 29.3932 58.1874 27.4051C60.2345 25.417 61.2719 22.9906 61.2719 20.1925C61.2719 17.3945 60.2345 14.9663 58.1874 12.98C56.1421 10.9919 53.6439 9.98438 50.7609 9.98438ZM55.3322 24.686C54.0747 25.9072 52.538 26.5268 50.7609 26.5268C48.9727 26.5268 47.4286 25.9072 46.1712 24.686C44.9267 23.4648 44.2961 21.9705 44.2961 20.2464C44.2961 18.5097 44.9267 17.0119 46.1712 15.7907C47.4286 14.5694 48.9727 13.9498 50.7609 13.9498C52.5362 13.9498 54.0747 14.5694 55.3322 15.7907C56.5897 17.0119 57.2276 18.5115 57.2276 20.2482C57.2276 21.9723 56.5897 23.4648 55.3322 24.686Z" fill="white"/>
<path d="M73.7815 9.98438C71.372 9.98438 69.2824 10.8267 67.5718 12.4897C65.8613 14.151 64.9922 16.1804 64.9922 18.5205V28.4647C64.9922 29.0124 65.1845 29.456 65.5821 29.8188C65.9871 30.2121 66.4457 30.4025 66.9875 30.4025H67.043C67.5848 30.4025 68.0434 30.2139 68.4428 29.8242C68.8441 29.456 69.0383 29.0124 69.0383 28.4647V18.5205C69.0383 17.2544 69.4987 16.1588 70.4067 15.2645C71.3294 14.3683 72.4649 13.9139 73.7815 13.9139C75.0852 13.9139 76.2132 14.3683 77.136 15.2627C78.0458 16.1588 78.5062 17.2544 78.5062 18.5205V28.4647C78.5062 29.0124 78.6986 29.456 79.0961 29.8188C79.5011 30.2121 79.9653 30.4025 80.52 30.4025H80.557C81.121 30.4025 81.5778 30.2157 81.9513 29.8296C82.3582 29.456 82.5505 29.0124 82.5505 28.4647V18.5205C82.5505 16.1804 81.6832 14.151 79.9708 12.4897C78.2621 10.8267 76.1799 9.98438 73.7815 9.98438Z" fill="white"/>
<path d="M99.9673 10.4621C98.9502 10.1442 97.8814 9.98438 96.7922 9.98438C93.9111 9.98438 91.411 10.9919 89.3657 12.98C87.3205 14.9681 86.2812 17.3945 86.2812 20.1925C86.2812 22.9906 87.3187 25.4187 89.3657 27.4051C91.4128 29.3932 93.9111 30.4007 96.7922 30.4007C97.8832 30.4007 98.9521 30.2463 99.9691 29.9391C100.91 29.6374 101.371 29.0304 101.371 28.0803C101.371 27.4104 101.106 26.8986 100.565 26.5107C99.995 26.1192 99.3848 26.0312 98.7653 26.2215C98.1329 26.4227 97.469 26.5251 96.794 26.5251C95.0058 26.5251 93.4617 25.9054 92.2043 24.6842C90.9598 23.463 90.3292 21.9687 90.3292 20.2446C90.3292 18.5079 90.9598 17.0101 92.2043 15.7889C93.4617 14.5676 95.0058 13.948 96.794 13.948C97.4671 13.948 98.1329 14.0504 98.769 14.2515C99.394 14.4329 99.9858 14.3593 100.57 13.9588C101.108 13.5745 101.373 13.0662 101.373 12.4089V12.3173C101.371 11.3619 100.912 10.753 99.9673 10.4621Z" fill="white"/>
<path d="M123.066 20.981C122.098 20.981 121.471 21.412 121.148 22.2974C120.708 23.5294 119.926 24.5513 118.825 25.3307C117.697 26.1246 116.421 26.5268 115.034 26.5268C112.948 26.5268 111.384 25.9054 110.387 24.6824L110.176 24.422L110.485 24.2819C111.103 23.9999 113.194 23.0768 116.702 21.5359C119.548 20.2877 121.843 19.282 123.591 18.5187C124.112 18.2924 124.458 17.9368 124.645 17.4322C124.733 17.2041 124.778 16.9796 124.778 16.7569C124.778 16.4821 124.711 16.2091 124.58 15.9433C123.753 14.1743 122.472 12.7322 120.763 11.651C119.043 10.5447 117.117 9.98438 115.034 9.98438C112.153 9.98438 109.653 10.9919 107.608 12.98C105.563 14.9681 104.523 17.3945 104.523 20.1925C104.523 22.9906 105.561 25.4187 107.608 27.4051C109.655 29.3932 112.153 30.4007 115.034 30.4007C117.287 30.4007 119.349 29.7506 121.165 28.4701C122.958 27.2344 124.229 25.5894 124.942 23.5797C125.033 23.339 125.077 23.1056 125.077 22.8829C125.077 22.5111 124.954 22.1627 124.698 21.8179C124.288 21.2539 123.753 20.981 123.066 20.981ZM108.571 20.2464C108.571 18.5097 109.202 17.0119 110.446 15.7907C111.704 14.5694 113.248 13.9498 115.036 13.9498C117.032 13.9498 118.537 14.5191 119.511 15.6434L119.741 15.9092L108.571 20.7798V20.2464Z" fill="white"/>
<path d="M136.115 13.9122C136.657 13.9122 137.116 13.7236 137.515 13.3339C137.916 12.9657 138.111 12.5221 138.111 11.9743C138.111 11.3996 137.916 10.9489 137.515 10.5591C137.116 10.1712 136.657 9.98084 136.115 9.98084H133.038V4.46728C133.038 3.9285 132.844 3.47771 132.443 3.08979C132.045 2.71444 131.587 2.53125 131.043 2.53125H130.987C130.444 2.53125 129.985 2.71444 129.584 3.09338C129.186 3.47951 128.992 3.93029 128.992 4.46908V24.9554C128.992 26.4407 129.545 27.7356 130.636 28.806C131.736 29.8638 133.077 30.4008 134.618 30.4008H136.115C136.657 30.4008 137.116 30.2122 137.515 29.8225C137.916 29.4543 138.111 29.0107 138.111 28.4629C138.111 27.8882 137.916 27.4374 137.515 27.0477C137.116 26.6598 136.657 26.4694 136.115 26.4694H134.618C134.17 26.4694 133.791 26.3204 133.491 26.0294C133.19 25.7367 133.038 25.3757 133.038 24.9536V13.9122H136.115Z" fill="white"/>
<path d="M148.389 13.9122C148.931 13.9122 149.389 13.7236 149.789 13.3339C150.19 12.9657 150.384 12.5221 150.384 11.9743C150.384 11.3996 150.19 10.9489 149.789 10.5591C149.389 10.1712 148.931 9.98084 148.389 9.98084H145.312V4.46728C145.312 3.9285 145.118 3.47771 144.716 3.08979C144.319 2.71444 143.86 2.53125 143.316 2.53125H143.261C142.717 2.53125 142.259 2.71444 141.857 3.09338C141.46 3.47951 141.266 3.93029 141.266 4.46908V24.9554C141.266 26.4407 141.819 27.7356 142.91 28.806C144.01 29.8638 145.351 30.4008 146.891 30.4008H148.389C148.931 30.4008 149.389 30.2122 149.789 29.8225C150.19 29.4543 150.384 29.0107 150.384 28.4629C150.384 27.8882 150.19 27.4374 149.789 27.0477C149.389 26.6598 148.931 26.4694 148.389 26.4694H146.891C146.443 26.4694 146.064 26.3204 145.765 26.0294C145.463 25.7367 145.312 25.3757 145.312 24.9536V13.9122H148.389Z" fill="white"/>
<path d="M163.503 9.98438C160.622 9.98438 158.122 10.9919 156.077 12.98C154.031 14.9681 152.992 17.3945 152.992 20.1925C152.992 22.9906 154.03 25.4187 156.077 27.4051C158.124 29.3932 160.622 30.4007 163.503 30.4007C166.384 30.4007 168.884 29.3932 170.93 27.4051C172.977 25.417 174.014 22.9906 174.014 20.1925C174.014 17.3945 172.977 14.9663 170.93 12.98C168.882 10.9919 166.384 9.98438 163.503 9.98438ZM168.073 24.686C166.815 25.9072 165.278 26.5268 163.501 26.5268C161.713 26.5268 160.169 25.9072 158.912 24.686C157.667 23.4648 157.036 21.9705 157.036 20.2464C157.036 18.5097 157.667 17.0119 158.912 15.7907C160.169 14.5694 161.713 13.9498 163.501 13.9498C165.277 13.9498 166.815 14.5694 168.073 15.7907C169.33 17.0119 169.968 18.5115 169.968 20.2482C169.968 21.9723 169.33 23.4648 168.073 24.686Z" fill="white"/>
<path d="M180.527 2.53125H180.472C179.928 2.53125 179.47 2.71444 179.068 3.09338C178.671 3.47951 178.477 3.93029 178.477 4.46908V28.4647C178.477 29.0125 178.669 29.4561 179.066 29.8189C179.471 30.2122 179.93 30.4026 180.472 30.4026H180.527C181.069 30.4026 181.528 30.214 181.927 29.8243C182.328 29.4561 182.523 29.0125 182.523 28.4647V4.46908C182.523 3.93029 182.328 3.47951 181.927 3.09159C181.528 2.71444 181.069 2.53125 180.527 2.53125Z" fill="#27AAE1"/>
<path d="M198.073 9.98438C195.192 9.98438 192.692 10.9919 190.647 12.98C188.6 14.9681 187.562 17.3945 187.562 20.1925C187.562 22.9906 188.6 25.4187 190.647 27.4051C192.694 29.3932 195.192 30.4007 198.073 30.4007C200.692 30.4007 202.709 29.6877 204.072 28.2833L204.538 27.802V28.4629C204.538 29.0106 204.731 29.4542 205.128 29.817C205.533 30.2103 205.992 30.4007 206.534 30.4007H206.589C207.131 30.4007 207.589 30.2121 207.989 29.8224C208.39 29.4542 208.584 29.0106 208.584 28.4629V20.1925C208.584 17.3945 207.547 14.9663 205.5 12.98C203.453 10.9919 200.955 9.98438 198.073 9.98438ZM202.645 24.6501C201.4 25.8588 199.862 26.4712 198.073 26.4712C196.285 26.4712 194.741 25.8588 193.486 24.6501C192.239 23.427 191.609 21.9274 191.609 20.1925C191.609 18.4684 192.239 16.976 193.484 15.7548C194.741 14.5335 196.285 13.9139 198.073 13.9139C199.849 13.9139 201.387 14.5335 202.645 15.7548C203.902 16.976 204.54 18.4702 204.54 20.1943C204.538 21.9292 203.9 23.4288 202.645 24.6501Z" fill="#27AAE1"/>
<path d="M223.372 9.98264C220.733 9.98264 218.708 10.5717 217.355 11.7355L216.905 12.1216V4.46728C216.905 3.9285 216.711 3.47771 216.31 3.08979C215.912 2.71444 215.454 2.53125 214.91 2.53125H214.855C214.311 2.53125 213.852 2.71444 213.451 3.09338C213.054 3.47951 212.859 3.93029 212.859 4.46908V20.2483C212.872 23.0464 213.915 25.4601 215.961 27.4249C217.996 29.4022 220.489 30.4026 223.37 30.4026C226.251 30.4026 228.752 29.395 230.797 27.4069C232.844 25.4188 233.881 22.9925 233.881 20.1944C233.881 17.3963 232.844 14.9682 230.797 12.9819C228.752 10.9902 226.253 9.98264 223.372 9.98264ZM227.942 24.6843C226.684 25.9055 225.147 26.5251 223.37 26.5251C221.582 26.5251 220.038 25.9055 218.781 24.6843C217.536 23.463 216.905 21.9688 216.905 20.2447C216.905 18.508 217.536 17.0102 218.781 15.7889C220.038 14.5677 221.582 13.9481 223.37 13.9481C225.146 13.9481 226.684 14.5677 227.942 15.7889C229.199 17.0102 229.837 18.5098 229.837 20.2465C229.837 21.9706 229.199 23.463 227.942 24.6843Z" fill="#27AAE1"/>
<path d="M248.532 20.4146C247.844 19.7806 246.766 19.258 245.331 18.8593C242.84 18.2182 242.322 18.0206 242.148 17.9272C241.336 17.5195 240.922 16.891 240.922 16.0612C240.922 15.4722 241.137 14.9585 241.56 14.5329C241.989 14.1162 242.518 13.9079 243.139 13.9079H246.771C247.326 13.9079 247.79 13.7193 248.19 13.3296C248.591 12.9614 248.785 12.5178 248.785 11.9701C248.785 11.3954 248.591 10.9446 248.19 10.5549C247.79 10.1669 247.326 9.97656 246.771 9.97656H243.328C241.614 9.97656 240.123 10.58 238.895 11.7725C237.68 12.9524 237.065 14.3946 237.065 16.0594C237.065 17.771 237.56 19.109 238.537 20.0339C239.226 20.6912 240.303 21.2336 241.738 21.643C244.321 22.3488 244.791 22.5069 244.92 22.5662C245.734 22.9541 246.142 23.5414 246.142 24.3118C246.142 24.9153 245.926 25.4289 245.503 25.842C245.077 26.255 244.547 26.4634 243.927 26.4634H238.855C238.313 26.4634 237.854 26.6519 237.455 27.0417C237.055 27.4314 236.859 27.8804 236.859 28.4191C236.859 29.0028 237.052 29.4464 237.449 29.8092C237.854 30.2025 238.313 30.3929 238.855 30.3929H243.74C245.455 30.3929 246.947 29.7948 248.173 28.6149C249.386 27.426 250.002 25.9767 250.002 24.3118C250.002 22.629 249.506 21.3162 248.532 20.4146Z" fill="#27AAE1"/>
</svg>
